<svg width="31.165" height="31.198" style="overflow:visible"><svg xmlns="http://www.w3.org/2000/svg" viewBox="1.265 1.251 97.532 97.636"><path d="M49.98 74.695c-13.504 0-24.627-11.02-24.627-24.626S36.476 25.553 49.98 25.553s24.626 11.02 24.626 24.626-11.02 24.516-24.626 24.516m0-36.183c-6.376 0-11.558 5.181-11.558 11.557s5.182 11.557 11.557 11.557 11.558-5.181 11.558-11.557-5.182-11.558-11.558-11.558z"/><circle cx="89.57" cy="90.95" r="10.49" transform="matrix(.69 0 0 .69 15.5 15.5)"/><path d="M49.98 98.886c-26.897 0-48.715-21.928-48.715-48.817S23.09 1.251 49.98 1.251 98.797 23.18 98.797 50.07c0 7.562-1.725 14.794-4.968 21.604L82.16 65.946c2.484-4.968 3.67-10.26 3.67-15.767 0-19.768-16.09-35.859-35.859-35.859S14.23 30.41 14.23 50.07s16.091 35.86 35.75 35.86a35.3 35.3 0 0 0 15.228-3.458l5.616 11.772c-6.479 3.022-13.496 4.643-20.845 4.643z"/></svg></svg>